<svg xmlns="http://www.w3.org/2000/svg" width="327.2" height="110.4" viewBox="0 0 327.2 110.4"><defs><linearGradient id="linear-gradient" x1=".5" y1=".303" x2=".5" y2=".87" gradientUnits="objectBoundingBox"><stop offset="0" stop-color="#fffde8"/><stop offset="1" stop-color="#edde12"/></linearGradient></defs><g id="Group_16" data-name="Group 16" transform="translate(-26 -195)"><g id="_4K_lockup_-_wide_Logo_Wide" data-name="4K lockup - wide_Logo, Wide" transform="translate(142.712 213.819)"><g id="color_logo" transform="translate(-17.479 -18.819)"><g id="Four_Kitchens_2_" transform="translate(62.093 20.492)"><g id="Group_9" data-name="Group 9" fill="#fff"><path id="Path_15" data-name="Path 15" d="M307.9 87.57v1.859h-3.39v5.88h3.266v1.834h-3.266v8.016h-2.01V87.57z" transform="translate(-302.5 -87.417)"/><path id="Path_16" data-name="Path 16" d="M340.629 104.692h-.753c-2.187 0-3.266-1.081-3.266-3.268V90.066c0-2.187 1.081-3.266 3.266-3.266h.753c2.187 0 3.266 1.081 3.266 3.266v11.358c.005 2.187-1.079 3.268-3.266 3.268zm-.076-16.058h-.6a1.164 1.164 0 0 0-1.331 1.331v11.56a1.164 1.164 0 0 0 1.331 1.331h.6a1.164 1.164 0 0 0 1.331-1.331v-11.56a1.163 1.163 0 0 0-1.331-1.331z" transform="translate(-329.991 -86.796)"/><path id="Path_17" data-name="Path 17" d="M388.571 102.044c0 2.187-1.081 3.268-3.266 3.268h-.629c-2.187 0-3.266-1.081-3.266-3.268V87.57h2.01v14.575a1.164 1.164 0 0 0 1.331 1.331h.477a1.164 1.164 0 0 0 1.331-1.331V87.57h2.01z" transform="translate(-366.097 -87.417)"/><path id="Path_18" data-name="Path 18" d="M432.806 99.231v5.93H430.8v-5.855c0-1.056-.477-1.533-1.533-1.533h-1.487v7.388h-2.01V87.57h3.743c2.187 0 3.266 1.081 3.266 3.266V94.1c0 1.583-.553 2.362-1.558 2.763 1.108.307 1.585 1.011 1.585 2.368zm-3.367-9.825h-1.659v6.584h1.508a1.3 1.3 0 0 0 1.483-1.483v-3.768a1.164 1.164 0 0 0-1.331-1.333z" transform="translate(-401.849 -87.417)"/><path id="Path_19" data-name="Path 19" d="M492.451 105.161l-3.291-8.645v8.645h-2.01V87.57h2.01v8.519l3.468-8.519h2.137l-3.619 8.645 3.518 8.946z" transform="translate(-451.318 -87.417)"/><path id="Path_20" data-name="Path 20" d="M533.88 105.161h-2.01V87.57h2.01z" transform="translate(-487.36 -87.417)"/><path id="Path_21" data-name="Path 21" d="M550.509 105.169v-15.73h-2.639V87.58h7.287v1.859h-2.639v15.73z" transform="translate(-500.255 -87.425)"/><path id="Path_22" data-name="Path 22" d="M598.036 97.789v3.644c0 2.187-1.081 3.268-3.266 3.268h-.654c-2.187 0-3.266-1.081-3.266-3.268V90.076c0-2.187 1.081-3.266 3.266-3.266h.654c2.162 0 3.215 1.056 3.215 3.215v3.167h-1.96v-3.215a1.164 1.164 0 0 0-1.331-1.331h-.5a1.164 1.164 0 0 0-1.331 1.331v11.56a1.164 1.164 0 0 0 1.331 1.331h.553a1.164 1.164 0 0 0 1.331-1.331v-3.744h1.96z" transform="translate(-534.895 -86.804)"/><path id="Path_23" data-name="Path 23" d="M640.176 95.235V87.57h2.01v17.591h-2.01v-8.042h-3.266v8.042h-2.01V87.57h2.01v7.665z" transform="translate(-570.397 -87.417)"/><path id="Path_24" data-name="Path 24" d="M685.527 87.57v1.859h-3.518v5.829h3.391v1.834h-3.392v6.208h3.569v1.859H680V87.57z" transform="translate(-606.745 -87.417)"/><path id="Path_25" data-name="Path 25" d="M717.359 91.391v13.77h-1.909V87.57h2.763l2.915 12.689V87.57h1.909v17.591h-2.513z" transform="translate(-635.316 -87.417)"/><path id="Path_26" data-name="Path 26" d="M768.768 98.844v2.563c0 2.187-1.081 3.268-3.266 3.268h-.553c-2.162 0-3.217-1.081-3.217-3.217v-3.695h1.96v3.768a1.164 1.164 0 0 0 1.331 1.331h.4a1.164 1.164 0 0 0 1.331-1.331v-2.638a1.8 1.8 0 0 0-.879-1.684l-2.463-1.783a3.5 3.5 0 0 1-1.684-3.268v-2.112c0-2.187 1.081-3.266 3.266-3.266h.5c2.162 0 3.217 1.081 3.217 3.215v3.167h-1.96V89.92a1.164 1.164 0 0 0-1.331-1.331h-.351a1.164 1.164 0 0 0-1.331 1.331v2.212a1.818 1.818 0 0 0 .9 1.684l2.437 1.758a3.476 3.476 0 0 1 1.693 3.27z" transform="translate(-672.615 -86.78)"/></g></g><g id="Logo_1_"><circle id="Ellipse_1" data-name="Ellipse 1" cx="25.661" cy="25.661" r="25.661" transform="rotate(-80.782 29.773 25.33)" fill="#35aa4e"/><g id="Group_12" data-name="Group 12" transform="translate(17.922 11.924)"><g id="Group_11" data-name="Group 11"><g id="bracket_1_" transform="translate(10.083 .316)"><path id="Path_27" data-name="Path 27" d="M135.01 54.488V51.4c0-3.126.809-4.747 4.011-4.747h.772V44.26h-1.252c-4.38 0-6.512 2.356-6.512 6.844v2.612c0 3.79-1.03 6.4-4.857 6.4h-.332v2.647h.332c3.788 0 4.857 2.686 4.857 6.4v2.651c0 4.415 2.059 6.842 6.512 6.842h1.252v-2.389h-.772c-3.2 0-4.011-1.618-4.011-4.747v-3.089c0-3.681-1.51-5.888-4.673-6.955 3.128-1.102 4.673-3.235 4.673-6.988z" transform="translate(-126.84 -44.26)" fill="#fff"/></g><g id="knife_1_"><g id="Group_10" data-name="Group 10"><path id="Path_28" data-name="Path 28" d="M82.667 66V52.366a81.384 81.384 0 0 0-.536-9.736s-3.842 2.707-5.513 10.223a93.9 93.9 0 0 0-1.738 12.355s5.01-.037 5.311.6-.314 2.414-.314 4.477.262 3.025.037 3.811-.765.99-.788 1.351a1.958 1.958 0 0 0 1.952 2.214c.532 0 1.31-.51 1.459-1.836a71.346 71.346 0 0 0 .13-9.825zm-1.62 10.141a.443.443 0 1 1 .444-.442.441.441 0 0 1-.444.442zm.359-3.887a.443.443 0 1 1 .444-.444.443.443 0 0 1-.444.444zm.066-3.774a.444.444 0 1 1 .444-.444.445.445 0 0 1-.444.444z" transform="translate(-74.88 -42.63)" fill="#fff"/></g></g></g></g></g></g></g><g id="Group_14" data-name="Group 14" transform="translate(29.9 301.5)"><g id="Path_30" data-name="Path 30" fill-rule="evenodd" fill="url(#linear-gradient)"><path d="M7.3 1.9c-2.655 0-5.063-2.572-6.263-4.105C-.383-4.02-1.9-6.705-1.9-8.8c0-.789.157-2.3 1.518-6.298.888-2.61 2.171-5.937 3.813-9.887 3.06-7.362 7.266-16.639 11.843-26.122 4.596-9.525 9.165-18.423 12.864-25.056 2.001-3.59 3.722-6.47 5.114-8.562 2.195-3.298 3.238-4.116 3.966-4.47.618-.305 1.233-.305 1.682-.305 1.22 0 2.606.446 4.118 1.326 1.243.723 2.53 1.718 3.725 2.876 1.31 1.271 4.357 4.566 4.357 7.698 0 1.258-.353 2.26-1.05 2.977-2.487 2.712-7.23 9.803-13.012 19.388a293.967 293.967 0 0 1 19.284-13.958c5.978-3.954 11.295-7.105 15.803-9.367 5.42-2.718 9.435-4.04 12.275-4.04 2.269 0 4.733 1.735 6.761 4.761 1.877 2.8 2.985 6.081 3.039 9.002v.037c0 1.402-.253 2.517-.772 3.408-.633 1.085-1.623 1.802-2.943 2.132l-.02.006-.022.004c-12.37 2.812-37.014 13.121-57.5 25.69 1.062 2.804 3.167 8.067 5.777 13.03 1.807 3.436 3.546 6.138 5.168 8.032 1.655 1.933 3.187 2.998 4.312 2.998 1.523 0 3.247-.479 5.125-1.423 1.702-.856 3.493-2.073 5.322-3.617 3.547-2.996 6.15-6.295 7.034-7.782l.026-.044.029-.043c.748-1.123 1.74-1.291 2.264-1.291.923 0 2.262.47 3.396 2.708.629 1.24 1.004 2.658 1.004 3.792 0 1.529-.871 3.57-2.59 6.068-1.562 2.271-3.71 4.72-6.047 6.896-2.664 2.48-5.528 4.568-8.283 6.04C52.134-.405 48.944.5 46 .5h-.052C40.474.356 35.097-2.17 29.965-7.008c-3.117-2.94-6.067-6.656-8.768-11.045a44.227 44.227 0 0 1-2.546-4.756c-2.548 4.817-4.682 9.132-6.243 12.634C9.834-4.404 9.8-3.054 9.8-3c0 .483.087.908.164 1.282.07.342.136.665.136 1.018 0 .86-.416 1.63-1.14 2.114A2.976 2.976 0 0 1 7.3 1.9zm256.4-.5a18.44 18.44 0 0 1-6.553-1.216c-1.896-.719-3.786-1.777-5.618-3.143-2.33-1.74-4.597-3.973-7.011-6.923a454.53 454.53 0 0 0-1.084 1.856c-1.137 1.955-2.212 3.802-3.152 5.208C238.962-.843 237.92.3 236.5.3c-1.642 0-3.969-.863-5.927-2.198-1.885-1.285-3.131-2.795-3.629-4.362-.907.173-1.824.26-2.744.26-1.62 0-3.05-.194-4.411-.605C214.776-1.961 210.159.3 205.7.3c-2.449 0-5.465-1.292-8.276-3.544-1.992-1.596-3.622-3.463-4.767-5.43-2.153 2.016-4.285 3.692-6.362 5.001C182.745-1.435 179.383-.3 176.3-.3c-2.01 0-3.905-.457-5.477-1.323a8.687 8.687 0 0 1-2.604-2.173C166.157-2.001 163.749-.5 160.8-.5c-2.203 0-4.563-1.067-6.643-3.005-1.255-1.168-2.353-2.605-3.22-4.19C146.724-3.672 141.238.3 136 .3c-1.268 0-2.674-.38-4.178-1.128-1.34-.668-2.682-1.6-3.882-2.694-2.822-2.574-4.44-5.628-4.44-8.378 0-1.12.366-3.184 3.205-9.266-2.02 2.864-4.223 5.683-6.074 7.268C116.24-8.758 107.734-.3 99.3-.3c-2.01 0-3.905-.457-5.477-1.323a8.687 8.687 0 0 1-2.604-2.173C89.157-2.001 86.749-.5 83.8-.5c-1.458 0-3.012-.473-4.495-1.37-1.353-.817-2.654-1.989-3.761-3.39a17.716 17.716 0 0 1-2.691-4.819A16.83 16.83 0 0 1 71.8-15.9v-.06c.082-2.74 1.024-5.849 2.799-9.238 1.595-3.047 3.793-6.153 6.356-8.982 2.594-2.863 5.427-5.293 8.194-7.026 3.172-1.987 6.116-2.994 8.751-2.994 2.54 0 4.497 2.02 5.95 4.224.434-.429.82-.763 1.181-1.022.867-.624 1.69-.902 2.669-.902 1.675 0 3.947.6 5.787 1.526 2.652 1.336 4.113 3.21 4.113 5.274 0 1.15-.742 2.548-3.454 6.502-.196.286-.365.533-.482.707l-.018.027-.019.026c-2.08 2.914-4.466 6.704-6.226 9.892-1.755 3.18-2.518 5.057-2.849 6.104.677-.301 1.775-.972 3.416-2.458 1.992-1.805 3.99-4.083 5.355-5.686.076-.124.157-.247.243-.367 1.064-1.515 2.204-2.996 3.306-4.429 2.17-2.82 4.233-5.5 5.806-8.458A11.285 11.285 0 0 1 121.1-39c0-1.946.73-4.096 1.954-5.751 1.596-2.16 3.921-3.349 6.546-3.349 2.376 0 4.487.955 5.944 2.688 1.023 1.218 1.687 2.794 1.89 4.441.403-.29.802-.597 1.197-.901 1.552-1.197 3.018-2.328 4.769-2.328.93 0 2.333.296 3.74 1.708.825.826 1.565 1.941 2.2 3.315 1.07 2.312 1.76 5.247 1.76 7.477 0 .993-.09 2.255-.8 3.2-.172.23-.403.53-.695.912-1.398 1.825-4.002 5.223-6.264 8.72-3.479 5.38-3.923 7.587-3.94 8.32.27-.089.827-.346 1.75-1.085.978-.783 1.921-1.748 2.546-2.386.143-.147.27-.277.38-.386 1.238-1.27 2.491-2.736 3.704-4.155.67-.783 1.308-1.53 1.93-2.229 1.626-4.983 5.376-10.68 10.108-15.334 2.399-2.359 4.948-4.331 7.372-5.704 2.78-1.575 5.373-2.373 7.709-2.373 2.54 0 4.497 2.02 5.95 4.224.434-.429.82-.763 1.181-1.022.867-.624 1.69-.902 2.669-.902 1.675 0 3.947.6 5.787 1.526 2.652 1.336 4.113 3.21 4.113 5.274 0 1.15-.742 2.548-3.454 6.502-.196.286-.365.533-.482.707l-.018.027-.019.026c-2.08 2.914-4.466 6.704-6.226 9.892-1.756 3.18-2.518 5.058-2.849 6.104.786-.35 2.14-1.199 4.26-3.249 2.243-2.17 4.424-4.78 5.867-6.506l.255-.306c2.345-7.17 7.625-12.334 10.598-14.798 4.616-3.823 9.661-6.199 13.168-6.199 2.645 0 5.49 1.552 7.055 2.556a11.036 11.036 0 0 1 3.445-.556c3.147 0 4.946 1.4 5.902 2.576 1.176 1.446 1.798 3.426 1.798 5.724 0 2.824-.858 6.278-2.48 9.989a44.28 44.28 0 0 1-2.46 4.784c1.179-1.018 2.29-2.288 3.284-3.426.418-.479.816-.934 1.204-1.355 4.864-8.559 12.06-20.106 18.822-30.201 3.337-4.983 6.338-9.262 8.676-12.375 1.253-1.668 2.322-3.008 3.176-3.982 1.373-1.567 2.044-2.016 2.515-2.238.614-.296 1.277-.296 1.763-.296 1.875 0 4.458.798 6.742 2.082 2.034 1.143 4.458 3.028 4.458 5.518 0 .639-.228.97-.681 1.627-.218.317-.54.78-.948 1.367a898.792 898.792 0 0 0-12.322 18.136c1.433-.464 2.868-.73 4.451-.73.635 0 1.355 0 2.112.124 2.545.39 4.2 3.121 5.142 5.347 1.11 2.622 1.746 5.73 1.746 8.529 0 3.91-1.653 7.025-5.053 9.524-1.756 1.29-3.967 2.419-6.76 3.448-2.307.85-4.962 1.616-8.069 2.327a8.956 8.956 0 0 0 1.535 2.29c.894.963 2.374 2.111 4.347 2.111.736 0 2.51-.487 6.12-3.747 2.649-2.392 5.36-5.418 7.751-8.087.353-.394.69-.77 1.02-1.135.877-2.716 2.183-5.391 3.882-7.958a36.655 36.655 0 0 1 5.86-6.847c4.55-4.147 9.531-6.526 13.667-6.526.36 0 .671.035.92.062.19.021.34.038.48.038h.147l.146.022c1.776.263 4.321 1.655 6.486 3.547 1.539 1.346 4.121 4.061 4.121 7.131v.07l-.005.07c-.137 1.95-.717 4.014-1.722 6.134a25.441 25.441 0 0 1-3.52 5.43c-1.394 1.649-2.936 3.048-4.46 4.046C304.219-16.59 302.539-16 301-16c-1.973 0-4.596-1.06-6.611-2.088-.392 1.348-.589 2.616-.589 3.788 0 1.155.193 1.91.575 2.24.293.256 1.004.56 2.725.56 2.217 0 4.546-.9 7.12-2.75 2.677-1.922 5.605-4.91 8.703-8.88 1.038-1.334 2.38-2.07 3.777-2.07 1.235 0 2.44.55 3.308 1.508A5.04 5.04 0 0 1 321.3-20.3c0 .92-.23 1.771-.685 2.529l-.01.016-.009.015c-.505.808-3.41 4.892-7.415 8.686C307.716-3.808 301.235-.8 295.4-.8c-2.362 0-5.64-.934-8.77-2.499-1.93-.964-5.282-2.932-6.673-5.515-1.945 1.916-4.303 4.065-6.766 5.913C269.333-.007 266.228 1.4 263.7 1.4zm-58.96-13.39c.044.024.202.09.56.09 1.056 0 2.938-.627 5.107-2.315-1.001-1.93-1.507-4.104-1.507-6.485v-.059a32.77 32.77 0 0 0-1.086 1.5c-1.892 2.77-3.114 5.502-3.114 6.959 0 .171.024.27.04.31zM94.78-27.232a52.87 52.87 0 0 0-3.465 5.062l-.006.01-.007.01c-1.766 2.865-2.872 5.112-3.533 6.63.236-.286.488-.602.756-.953 1.456-1.904 2.831-4.111 3.386-5.22.916-1.832 1.868-3.711 2.868-5.539zm77 0a52.87 52.87 0 0 0-3.465 5.062l-.006.01-.007.01c-1.766 2.865-2.872 5.112-3.533 6.63.236-.286.488-.602.756-.953 1.456-1.904 2.831-4.111 3.386-5.22.916-1.832 1.868-3.711 2.868-5.539z"/><path d="M38.9-87.5c-.3 0-.6 0-.8.1C32.7-84.8.1-17.1.1-8.8.1-6.1 4.4-.1 7.3-.1c.4 0 .8-.2.8-.6 0-.4-.3-1.2-.3-2.3 0-2.2 3.7-10.9 11.1-24.5.8 2.3 2.2 5.5 4 8.4C26.1-13.9 34.5-1.8 46-1.5c11.2 0 24.4-15.3 24.4-19.7 0-1.7-1.3-4.5-2.4-4.5-.2 0-.4.1-.6.4-2.2 3.7-11.3 13.8-19.2 13.8-7.7 0-16.4-23.3-17.7-26.9C51-51.2 76.8-62.2 90-65.2c1.6-.4 2.2-1.6 2.2-3.6-.1-5.4-4.5-11.8-7.8-11.8-10.6 0-43 23.4-55 34.4 8.4-14.6 15.7-26 19.2-29.8.4-.4.5-1 .5-1.6 0-3.5-6.6-9.9-10.2-9.9m229.5 17.8c-.3 0-.7 0-.9.1-3.129 1.455-22.245 30.228-32.428 48.183-2.492 2.655-5.883 7.517-10.172 7.517-.3 0-.7 0-1-.1 4.5-5.6 8-13.3 8-18.6 0-3.5-1.7-6.3-5.7-6.3-1.3 0-2.6.3-3.7.8-1.8-1.3-4.6-2.8-6.8-2.8-5.906 0-18.48 8.646-21.98 19.98-2.647 3.15-9.238 11.32-13.02 11.32-.7 0-1.4-.2-1.4-1.1 0-3.1 5.7-12.7 9.7-18.3.8-1.2 3.6-5.1 3.6-6.1 0-2.9-5.4-4.8-7.9-4.8-.9 0-1.7.3-4.2 3.3-1.2-2.3-3.2-5.6-5.6-5.6-8.268 0-20.404 12.533-23.412 22.425-1.827 2.023-3.907 4.642-5.988 6.775-1.1 1.1-4.2 4.5-6.3 4.5-1.1 0-1.8-.9-1.8-2 0-4.9 9.5-16.8 11.3-19.2.3-.4.4-1.1.4-2 0-3.7-2.3-10.5-5.7-10.5-2.2 0-4.8 3.8-8.3 4.6.2-.7.4-1.5.4-2.3 0-3-2-6.2-5.9-6.2-4.5 0-6.5 4.4-6.5 7.1 0 2.5 1 4.5 1.9 5.6-2.5 5.2-6.5 9.5-9.8 14.2-.09.126-.17.252-.242.378-3.155 3.715-8.153 9.222-11.258 9.222-.7 0-1.4-.2-1.4-1.1 0-3.1 5.7-12.7 9.7-18.3.8-1.2 3.6-5.1 3.6-6.1 0-2.9-5.4-4.8-7.9-4.8-.9 0-1.7.3-4.2 3.3-1.2-2.3-3.2-5.6-5.6-5.6-9.4 0-23.8 16.2-24.1 26.3 0 7.2 5.5 13.4 10 13.4 3.2 0 5.8-2.4 7.9-4.5 1.2 3.4 4.5 4.7 7.6 4.7 7.23 0 15.097-7.351 19.915-13.02 3.852-3.2 9.803-12.965 11.385-15.38l3.3-.3c-2.3 4.4-8.4 15.9-8.4 19.1 0 4.8 6.6 10.2 10.5 10.2 5.106 0 10.984-4.628 15.585-9.48 1.678 4.99 5.744 8.68 9.215 8.68 3.2 0 5.8-2.4 7.9-4.5 1.2 3.4 4.5 4.7 7.6 4.7 5.908 0 12.24-4.907 16.987-9.795C195.117-6.515 201.685-1.7 205.7-1.7c5 0 9.7-3.4 13.6-7.2 1.7.7 3.3.9 4.9.9a12.82 12.82 0 0 0 4.699-.899c-.13.454-.199.823-.199 1.099 0 3.2 5.4 6.1 7.8 6.1 1.3 0 4.7-6.7 7.8-11.7 4.9 6.5 11.1 12.8 19.4 12.8 4.51 0 11.876-6.401 17.173-12.008.148.991.39 1.878.727 2.608 1.6 3.5 9.6 7.2 13.8 7.2 5.4 0 11.4-2.9 16.4-7.7 3.8-3.6 6.6-7.5 7.1-8.3.3-.5.4-1 .4-1.5 0-1.6-1.2-2.9-2.6-2.9-.7 0-1.5.4-2.2 1.3-6.4 8.2-12.1 12.4-17.4 12.4-3.7 0-5.3-1.2-5.3-4.8 0-1.6.3-3.8 1.5-6.7 2.2 1.4 5.7 3 7.7 3 4.7 0 12.2-8.4 12.7-15.5 0-3.8-6.2-8.3-8.9-8.7-.5 0-.9-.1-1.4-.1-7.414 0-18.228 9.23-21.633 20.347C276.964-16.639 269.657-8 265.1-8c-4.7 0-8-4.7-8.4-7.9 15.9-3.3 20.4-7.8 20.4-13.8 0-5.2-2.5-11.5-5.2-11.9-.6-.1-1.2-.1-1.8-.1-3.3 0-6 1.4-9.9 3.4 9.6-14.8 17.4-25.7 17.4-25.8 0-2.6-6.1-5.6-9.2-5.6m30.7 44.2c-.7 0-1.9-.4-2.8-1 3.1-4.7 6.5-7.6 7.6-7.6.1 0 .2.1.3.1.1.1.2.3.2.6 0 1.9-3.2 7.9-5.3 7.9M85-10.9c-.3 0-.5-.1-.5-.7 0-1.4 1.4-5.6 5.1-11.6 2.7-4.5 7.1-10.1 9-10.1.6 0 .8 1.2.9 2.1-2.1 3.1-4 6.8-5.8 10.4-1.2 2.4-6.1 9.9-8.7 9.9m77 0c-.3 0-.5-.1-.5-.7 0-1.4 1.4-5.6 5.1-11.6 2.7-4.5 7.1-10.1 9-10.1.6 0 .8 1.2.9 2.1-2.1 3.1-4 6.8-5.8 10.4-1.2 2.4-6.1 9.9-8.7 9.9m88.6-12.4l2.5-3.9c1.5-.7 7.5-3.5 10.2-3.5.7 0 1.2.2 1.3.7 0 2.3-11.5 5.8-14 6.7m-31.2 1.8c-.3-.4-.5-1.3-.5-2.2 0-2.6 2.1-6.7 3.9-6.7.2 0 .4 0 .6.1.1.1.2.2.2.4 0 1.3-2 5.1-4.2 8.4M205.3-9.9c-1.6 0-2.6-.8-2.6-2.4 0-4.2 6.1-12.6 9.4-14.3-.8 2-1.2 3.9-1.2 5.9 0 2.4.6 4.8 2.1 6.9-2.8 2.6-5.7 3.9-7.7 3.9M38.9-91.5c1.579 0 3.303.537 5.124 1.598 1.381.803 2.803 1.899 4.111 3.169 1.313 1.273 2.447 2.659 3.28 4.007 1.118 1.809 1.685 3.533 1.685 5.126 0 1.785-.536 3.248-1.593 4.348-1.546 1.69-4.005 5.15-7.068 9.897 3.564-2.6 7.234-5.162 10.78-7.506 6.044-3.998 11.43-7.19 16.01-9.486C76.932-83.21 81.24-84.6 84.4-84.6c1.712 0 3.413.65 5.056 1.93 1.197.933 2.362 2.219 3.367 3.718 2.085 3.11 3.315 6.783 3.376 10.078l.001.037v.037c0 1.766-.342 3.21-1.045 4.416-.902 1.546-2.349 2.606-4.185 3.065l-.042.01-.042.01c-6.369 1.447-15.947 4.903-26.278 9.481-10.158 4.502-20.403 9.804-29.197 15.099 1.118 2.845 2.866 7.012 4.947 11.005 5.016 9.62 7.766 10.2 7.849 10.214 2.415-.003 5.664-1.625 9.15-4.568 3.335-2.817 5.821-5.958 6.605-7.276l.053-.089.057-.086C64.996-28.905 66.428-29.7 68-29.7c1.158 0 3.291.45 4.941 3.358 1.662-3.125 3.917-6.295 6.532-9.181 2.715-2.997 5.694-5.548 8.615-7.378C91.583-45.09 94.884-46.2 97.9-46.2c2.282 0 4.4 1.124 6.292 3.34l.009.01c1.074-.698 2.18-1.05 3.499-1.05 1.994 0 4.556.667 6.687 1.74 2.935 1.478 4.254 3.306 4.82 4.86a13.493 13.493 0 0 1-.107-1.7c0-2.358.877-4.953 2.346-6.94 1.983-2.683 4.878-4.16 8.154-4.16 2.977 0 5.631 1.208 7.475 3.401a10.163 10.163 0 0 1 1.487 2.375c1.385-.996 2.948-1.876 4.838-1.876 1.829 0 5.268.803 7.756 6.184 1.199 2.593 1.944 5.78 1.944 8.316l-.003.335a49.642 49.642 0 0 1 5.32-6.184c3.285-3.23 9.795-8.651 16.483-8.651 2.282 0 4.4 1.124 6.292 3.34l.009.01c1.074-.698 2.18-1.05 3.499-1.05 1.994 0 4.556.667 6.687 1.74 4.536 2.285 5.213 5.404 5.213 7.06 0 .566-.096 1.122-.318 1.751a40.405 40.405 0 0 1 4.974-4.892c5.033-4.17 10.433-6.659 14.444-6.659 2.722 0 5.47 1.273 7.356 2.39a13.014 13.014 0 0 1 3.144-.39c1.525 0 2.934.28 4.187.83a8.656 8.656 0 0 1 3.266 2.484c1.47 1.807 2.247 4.223 2.247 6.986 0 .579-.033 1.263-.123 2.051a572.714 572.714 0 0 1 14.83-23.373c3.358-5.013 6.38-9.322 8.74-12.463 1.283-1.708 2.384-3.087 3.27-4.1 1.3-1.482 2.218-2.276 3.153-2.722 1.024-.493 2.027-.493 2.63-.493 2.231 0 5.118.874 7.722 2.338 3.584 2.014 5.478 4.525 5.478 7.262 0 1.22-.549 2.043-.756 2.353-.065.098-.153.227-.278.409-.22.32-.544.785-.953 1.374a912.677 912.677 0 0 0-9.748 14.266l.235-.002c.675 0 1.513 0 2.428.15 2.732.424 5.037 2.685 6.668 6.541 1.139 2.691 1.82 5.854 1.897 8.764a38.655 38.655 0 0 1 7.293-9.007c2.32-2.116 4.75-3.805 7.218-5.02 2.731-1.346 5.354-2.028 7.796-2.028.472 0 .859.043 1.142.074.093.01.22.025.261.026h.295l.288.043c2.583.383 5.573 2.328 7.51 4.02 2.191 1.917 4.804 4.97 4.804 8.637v.14l-.01.141c-.137 1.945-.67 4.002-1.546 6.046.185-.018.37-.027.556-.027 3.64 0 6.6 3.095 6.6 6.9a6.817 6.817 0 0 1-.97 3.558l-.019.031-.019.031c-.566.906-3.537 5.1-7.734 9.077C308.726-2.008 301.743 1.2 295.4 1.2c-2.658 0-6.27-1.013-9.664-2.71-1.947-.974-4.311-2.41-6.037-4.285-1.622 1.517-3.433 3.087-5.308 4.493C270.174 1.862 266.677 3.4 263.7 3.4c-4.64 0-9.137-1.6-13.367-4.756-1.85-1.38-3.652-3.045-5.503-5.092-1.03 1.77-2.005 3.425-2.885 4.742-.61.912-1.121 1.583-1.608 2.111a6.96 6.96 0 0 1-1.167 1.032c-1.037.713-2.024.863-2.67.863-2.448 0-5.249-1.315-7.053-2.545-1.654-1.128-2.906-2.43-3.708-3.827-.511.048-1.025.072-1.539.072-1.388 0-2.658-.129-3.869-.397-1.853 1.643-3.638 2.955-5.414 3.983-3.108 1.801-6.21 2.714-9.217 2.714-2.895 0-6.368-1.452-9.527-3.984a22.843 22.843 0 0 1-3.892-3.966c-1.657 1.422-3.302 2.65-4.92 3.669C183.489.462 179.767 1.7 176.3 1.7c-2.347 0-4.575-.543-6.441-1.57a11.098 11.098 0 0 1-1.8-1.235c-.228.166-.461.329-.7.485-2.14 1.407-4.347 2.12-6.559 2.12-2.71 0-5.554-1.258-8.006-3.541a17.93 17.93 0 0 1-2.266-2.57 40.586 40.586 0 0 1-4.349 3.333C142.567 1.096 139.143 2.3 136 2.3c-1.58 0-3.286-.45-5.069-1.338-1.503-.749-3.004-1.788-4.34-3.007-1.412-1.289-2.61-2.755-3.466-4.241-1.068-1.857-1.615-3.727-1.625-5.561-2.196 2.499-5.346 5.729-8.973 8.389C107.86-.036 103.41 1.7 99.3 1.7c-2.347 0-4.575-.543-6.441-1.57a11.098 11.098 0 0 1-1.8-1.235c-.228.166-.461.329-.7.485C88.22.787 86.012 1.5 83.8 1.5c-1.822 0-3.734-.573-5.53-1.657-1.555-.94-3.04-2.276-4.295-3.862a19.467 19.467 0 0 1-3-5.37 19.325 19.325 0 0 1-.809-2.853 47.994 47.994 0 0 1-5.04 5.47C61.405-3.31 53.973 2.5 46 2.5h-.052l-.052-.001c-5.98-.156-11.802-2.865-17.303-8.051-3.245-3.06-6.306-6.913-9.1-11.451a42.12 42.12 0 0 1-.857-1.448c-1.63 3.177-3.039 6.071-4.165 8.564-2.255 4.992-2.618 6.673-2.67 6.975.011.251.063.504.122.793.083.404.177.863.177 1.419 0 2.58-2.108 4.6-4.8 4.6-1.567 0-3.162-.597-4.74-1.773C1.503 1.339.432.267-.538-.973-1.548-2.265-3.9-5.614-3.9-8.8c0-1.75.623-5.26 5.485-16.953C4.659-33.148 8.88-42.46 13.473-51.976c4.613-9.56 9.2-18.495 12.918-25.161 2.027-3.635 3.775-6.56 5.196-8.696 2.315-3.48 3.578-4.586 4.751-5.158 1.035-.509 2.027-.509 2.562-.509zm81.5 58.242a13.102 13.102 0 0 1-.807-2.137c.005.103.007.201.007.295 0 1.784-.95 3.47-3.804 7.633-.193.28-.359.522-.468.686l-.036.053-.037.053a102.96 102.96 0 0 0-3.885 5.896l.336-.393a7.79 7.79 0 0 1 .23-.34c1.087-1.547 2.238-3.043 3.351-4.49 1.884-2.447 3.684-4.786 5.113-7.256zm69.759 10.361c.19-.555.401-1.108.631-1.66a110.312 110.312 0 0 0-2.419 3.776c.667-.775 1.27-1.496 1.773-2.099l.015-.017zm-42.216 1.088c.05-.144.1-.288.153-.433-.34.469-.688.955-1.04 1.453.3-.348.595-.688.887-1.02zM265.09-12c.103-.01 1.463-.196 4.95-3.377.2-.182.399-.367.599-.556-2.262 1.026-4.94 1.943-8.105 2.777.622.582 1.501 1.152 2.556 1.156zm-57.179-2.922a15.177 15.177 0 0 1-.138-.384c-.114.225-.219.44-.314.645.147-.08.298-.167.452-.26zm91.955.845c-1.335-.173-2.738-.618-4.02-1.138-.03.314-.046.619-.046.915 0 .32.02.552.041.71.235.044.631.09 1.259.09.865 0 1.79-.193 2.766-.577z" fill="#464207"/></g></g></g></svg>