<svg xmlns="http://www.w3.org/2000/svg" width="16.766" height="16.772" viewBox="0 0 16.766 16.772"><path id="f001.2" d="M16.766-55.218v11.527a1.76 1.76 0 0 1-.917 1.49 3.949 3.949 0 0 1-2.227.606A3.949 3.949 0 0 1 11.4-42.2a1.76 1.76 0 0 1-.917-1.49 1.76 1.76 0 0 1 .917-1.49 3.949 3.949 0 0 1 2.227-.606 4.585 4.585 0 0 1 1.048.131v-6.058l-8.388 2.455v7.663A1.76 1.76 0 0 1 5.37-40.1a3.949 3.949 0 0 1-2.227.606A3.949 3.949 0 0 1 .917-40.1 1.76 1.76 0 0 1 0-41.595a1.76 1.76 0 0 1 .917-1.49 3.949 3.949 0 0 1 2.227-.606 4.585 4.585 0 0 1 1.048.131v-8.547a1.08 1.08 0 0 1 .2-.639.963.963 0 0 1 .524-.377l10.479-3.111a1.089 1.089 0 0 1 .95.18.982.982 0 0 1 .426.835z" transform="translate(0 56.271)" fill="#fff" opacity=".404"/></svg>