<svg xmlns="http://www.w3.org/2000/svg" width="359.954" height="43.468" viewBox="0 0 359.954 43.468"><g id="Group_15" data-name="Group 15" transform="translate(-3.621 13.492)"><path id="Path_57" data-name="Path 57" d="M9.467 22.1a2.756 2.756 0 0 0 2.588-1.811l5.222-14.32a2.754 2.754 0 0 0-1.644-3.532L9.42.168a2.754 2.754 0 0 0-3.531 1.644L.667 16.132a2.754 2.754 0 0 0 1.644 3.532l6.213 2.265a2.759 2.759 0 0 0 .943.171zm0 0" transform="rotate(-11 108.37 -1479.364)" fill="#ff71ab"/><path id="Path_61" data-name="Path 61" d="M325.6 70.834l-6.067-13.983a2.755 2.755 0 0 0-3.623-1.431l-6.067 2.632a2.755 2.755 0 0 0-1.43 3.623l6.066 13.983a2.752 2.752 0 0 0 3.624 1.431l6.067-2.632a2.755 2.755 0 0 0 1.431-3.623zm0 0" transform="rotate(-11 -.054 -151.895)" fill="#39b751"/><path id="Path_64" data-name="Path 64" d="M38.465 209.321a2.757 2.757 0 0 1-2.674-3.423l2.02-8.08a2.754 2.754 0 1 1 5.344 1.336l-2.02 8.08a2.755 2.755 0 0 1-2.67 2.087zm0 0" transform="rotate(-11 -946.731 -560.404)" fill="#fffaa4"/><path id="Path_59" data-name="Path 59" d="M171.949 46.6a2.755 2.755 0 0 1-2.707-2.267l-1.477-8.2a2.755 2.755 0 0 1 5.422-.977l1.477 8.2a2.759 2.759 0 0 1-2.714 3.244zm0 0" transform="rotate(-11 37.148 -756.728)" fill="#fffaa4"/><path id="Path_54" data-name="Path 54" d="M9.467 22.1a2.756 2.756 0 0 0 2.588-1.811l5.222-14.32a2.754 2.754 0 0 0-1.644-3.532L9.42.168a2.754 2.754 0 0 0-3.531 1.644L.667 16.132a2.754 2.754 0 0 0 1.644 3.532l6.213 2.265a2.759 2.759 0 0 0 .943.171zm0 0" transform="rotate(-11 86.141 -1030.792)" fill="#ff71ab"/><path id="Path_56" data-name="Path 56" d="M325.6 70.834l-6.067-13.983a2.755 2.755 0 0 0-3.623-1.431l-6.067 2.632a2.755 2.755 0 0 0-1.43 3.623l6.066 13.983a2.752 2.752 0 0 0 3.624 1.431l6.067-2.632a2.755 2.755 0 0 0 1.431-3.623zm0 0" transform="rotate(-11 -22.283 296.677)" fill="#39b751"/><path id="Path_55" data-name="Path 55" d="M171.949 46.6a2.755 2.755 0 0 1-2.707-2.267l-1.477-8.2a2.755 2.755 0 0 1 5.422-.977l1.477 8.2a2.759 2.759 0 0 1-2.714 3.244zm0 0" transform="rotate(-11 14.92 -308.156)" fill="#fffaa4"/><path id="Path_34" data-name="Path 34" d="M32.462 332.707a2.754 2.754 0 0 0-3.522-1.665l-6.226 2.227a2.755 2.755 0 0 0-1.666 3.522l5.135 14.351a2.754 2.754 0 0 0 3.521 1.666l6.226-2.228a2.755 2.755 0 0 0 1.666-3.522zm0 0" transform="rotate(-11 -1668.444 -68.189)" fill="#7ace88"/><path id="Path_37" data-name="Path 37" d="M227.507 412.648a2.755 2.755 0 0 1-2.722-3.2l1.336-8.221a2.755 2.755 0 0 1 5.438.884l-1.336 8.221a2.756 2.756 0 0 1-2.716 2.316zm0 0" transform="rotate(-11 -1873.742 824.202)" fill="#f2e653"/><path id="Path_40" data-name="Path 40" d="M330.458 357.215a2.756 2.756 0 0 1-2.663-3.469l1.352-5.041-3.933-3.43a2.753 2.753 0 0 1-.85-2.79l1.352-5.039-3.933-3.43a2.754 2.754 0 0 1-.85-2.79l1.8-6.7a2.755 2.755 0 0 1 5.321 1.428l-1.352 5.039 3.933 3.429a2.755 2.755 0 0 1 .85 2.79l-1.352 5.039 3.933 3.43a2.757 2.757 0 0 1 .85 2.79l-1.8 6.7a2.755 2.755 0 0 1-2.658 2.044zm0 0" transform="rotate(-11 -1510.348 1200.518)" fill="#f94819"/><path id="Path_52" data-name="Path 52" d="M238.772 202.44l-6.362-1.8a2.755 2.755 0 0 0-3.4 1.9l-4.154 14.66a2.755 2.755 0 0 0 1.9 3.4l6.362 1.8a2.753 2.753 0 0 0 3.4-1.9l4.153-14.665a2.755 2.755 0 0 0-1.9-3.4zm0 0" transform="rotate(-11 -971.205 1142.154)" fill="#e00b58"/><path id="Path_53" data-name="Path 53" d="M375.184 264.186a2.753 2.753 0 0 1-2.356-1.324l-4.326-7.117a2.754 2.754 0 1 1 4.707-2.862l4.325 7.117a2.756 2.756 0 0 1-2.351 4.186zm0 0" transform="rotate(-11 -1082.839 1780.64)" fill="#f2e653"/><path id="Path_51" data-name="Path 51" d="M134.666 184.332a2.755 2.755 0 0 1-2.334-4.213l2.762-4.427-2.762-4.427a2.755 2.755 0 0 1 0-2.917l2.762-4.426-2.762-4.427a2.755 2.755 0 0 1 0-2.917l3.668-5.885a2.755 2.755 0 1 1 4.674 2.917l-2.762 4.427 2.762 4.426a2.755 2.755 0 0 1 0 2.917l-2.762 4.427 2.762 4.427a2.754 2.754 0 0 1 0 2.916l-3.673 5.886a2.754 2.754 0 0 1-2.335 1.296zm0 0" transform="rotate(-11 -730.429 738.723)" fill="#ff6b43"/></g></svg>